<svg width="2533" height="377" viewBox="0 0 2533 377" fill="none" xmlns="http://www.w3.org/2000/svg">
<g clip-path="url(#clip0_13_2)">
<mask id="mask0_13_2" style="mask-type:luminance" maskUnits="userSpaceOnUse" x="0" y="0" width="2533" height="377">
<path d="M0 -1.12165e-05H2532.73V376.363H0V-1.12165e-05Z" fill="white"/>
</mask>
<g mask="url(#mask0_13_2)">
<path d="M953.141 242.575C944.635 259.265 931.879 272.179 914.872 281.325C897.859 290.471 876.679 295.043 851.332 295.043H802.715V73.6166H851.332C876.679 73.6166 897.859 78.1873 914.872 87.3353C931.879 96.4806 944.635 109.319 953.141 125.845C961.64 142.375 965.897 161.871 965.897 184.33C965.897 206.471 961.64 225.893 953.141 242.575ZM948.809 33.9033C922.335 19.3033 890.804 12.0006 854.221 12.0006H737.731V356.659H854.221C890.804 356.659 922.335 349.438 948.809 334.998C975.284 320.557 995.66 300.338 1009.94 274.345C1024.22 248.351 1031.36 218.349 1031.36 184.33C1031.36 150.318 1024.22 120.391 1009.94 94.5539C995.66 68.7273 975.284 48.5086 948.809 33.9033Z" fill="#1E1E1E"/>
</g>
<mask id="mask1_13_2" style="mask-type:luminance" maskUnits="userSpaceOnUse" x="0" y="0" width="2533" height="377">
<path d="M0 -1.12165e-05H2532.73V376.363H0V-1.12165e-05Z" fill="white"/>
</mask>
<g mask="url(#mask1_13_2)">
<path d="M1127.12 204.066C1128.43 199.585 1129.96 195.269 1131.96 191.31C1137.74 179.922 1145.68 171.017 1155.79 164.594C1165.9 158.177 1177.05 154.967 1189.25 154.967C1198.55 154.967 1206.82 156.493 1214.04 159.541C1221.26 162.593 1227.43 166.519 1232.57 171.333C1237.7 176.146 1241.72 181.442 1244.61 187.218C1247.49 192.994 1249.09 198.613 1249.42 204.066H1127.12ZM1255.19 120.307C1237.22 109.078 1215.08 103.459 1188.77 103.459C1164.37 103.459 1142.71 109.478 1123.78 121.513C1104.84 133.545 1089.92 149.514 1079.01 169.407C1068.1 189.309 1062.65 210.97 1062.65 234.391C1062.65 259.423 1068.18 281.731 1079.25 301.302C1090.33 320.881 1105.56 336.283 1124.99 347.514C1144.4 358.742 1166.46 364.362 1191.17 364.362C1218.45 364.362 1241.39 358.502 1260.01 346.79C1278.62 335.081 1293.7 319.113 1305.26 298.895L1254.23 273.863C1248.45 283.815 1240.43 292.081 1230.16 298.654C1219.89 305.235 1207.21 308.522 1192.13 308.522C1179.3 308.522 1167.66 305.558 1157.24 299.617C1146.8 293.682 1138.54 285.018 1132.45 273.623C1128.58 266.402 1126.08 258.059 1124.67 248.834H1308.63C1308.94 247.23 1309.27 244.583 1309.59 240.891C1309.9 237.206 1310.07 232.79 1310.07 227.654C1310.07 204.871 1305.41 184.089 1296.11 165.315C1286.8 146.543 1273.16 131.546 1255.19 120.307Z" fill="#1E1E1E"/>
</g>
<mask id="mask2_13_2" style="mask-type:luminance" maskUnits="userSpaceOnUse" x="-1" y="0" width="2534" height="377">
<path d="M-0.00012207 -1.12165e-05H2532.73V376.363H-0.00012207V-1.12165e-05Z" fill="white"/>
</mask>
<g mask="url(#mask2_13_2)">
<path d="M1449.47 270.976H1445.62L1383.53 111.163H1311.8L1415.78 356.659H1478.36L1583.29 111.163H1512.53L1449.47 270.976Z" fill="#1E1E1E"/>
</g>
<mask id="mask3_13_2" style="mask-type:luminance" maskUnits="userSpaceOnUse" x="-1" y="0" width="2534" height="377">
<path d="M-0.00012207 -1.12165e-05H2532.73V376.363H-0.00012207V-1.12165e-05Z" fill="white"/>
</mask>
<g mask="url(#mask3_13_2)">
<path d="M1614.34 356.659H1679.32V218.988H1817.47V157.372H1679.32V73.616H1832.88V12.0013H1614.34V356.659Z" fill="#1E1E1E"/>
</g>
<mask id="mask4_13_2" style="mask-type:luminance" maskUnits="userSpaceOnUse" x="-1" y="0" width="2534" height="377">
<path d="M-0.00012207 -1.12165e-05H2532.73V376.363H-0.00012207V-1.12165e-05Z" fill="white"/>
</mask>
<g mask="url(#mask4_13_2)">
<path d="M1916.36 204.066C1917.67 199.585 1919.2 195.269 1921.21 191.31C1926.98 179.922 1934.93 171.017 1945.04 164.594C1955.14 158.177 1966.29 154.967 1978.49 154.967C1987.79 154.967 1996.06 156.493 2003.28 159.541C2010.5 162.593 2016.68 166.519 2021.81 171.333C2026.94 176.146 2030.96 181.442 2033.85 187.218C2036.74 192.994 2038.34 198.613 2038.66 204.066H1916.36ZM2044.44 120.307C2026.46 109.078 2004.32 103.459 1978.01 103.459C1953.62 103.459 1931.96 109.478 1913.02 121.513C1894.09 133.545 1879.16 149.514 1868.26 169.407C1857.34 189.309 1851.89 210.97 1851.89 234.391C1851.89 259.423 1857.43 281.731 1868.5 301.302C1879.57 320.881 1894.81 336.283 1914.23 347.514C1933.64 358.742 1955.7 364.362 1980.42 364.362C2007.69 364.362 2030.64 358.502 2049.25 346.79C2067.86 335.081 2082.95 319.113 2094.5 298.895L2043.47 273.863C2037.7 283.815 2029.67 292.081 2019.4 298.654C2009.13 305.235 1996.46 308.522 1981.38 308.522C1968.54 308.522 1956.9 305.558 1946.48 299.617C1936.05 293.682 1927.78 285.018 1921.69 273.623C1917.82 266.402 1915.32 258.059 1913.91 248.834H2097.87C2098.18 247.23 2098.51 244.583 2098.83 240.891C2099.15 237.206 2099.31 232.79 2099.31 227.654C2099.31 204.871 2094.66 184.089 2085.35 165.315C2076.04 146.543 2062.4 131.546 2044.44 120.307Z" fill="#1E1E1E"/>
</g>
<mask id="mask5_13_2" style="mask-type:luminance" maskUnits="userSpaceOnUse" x="0" y="0" width="2533" height="377">
<path d="M0 -1.12165e-05H2532.73V376.363H0V-1.12165e-05Z" fill="white"/>
</mask>
<g mask="url(#mask5_13_2)">
<path d="M2261.87 210.324L2225.77 201.659C2216.78 199.417 2209.08 196.048 2202.66 191.551C2196.24 187.06 2193.03 181.764 2193.03 175.665C2193.03 169.889 2196.24 164.917 2202.66 160.743C2209.08 156.576 2217.74 154.485 2228.66 154.485C2237.96 154.485 2246.71 156.412 2254.89 160.261C2263.07 164.112 2269.73 170.852 2274.86 180.479L2328.78 156.892C2323 144.7 2315.3 134.675 2305.67 126.807C2296.05 118.947 2284.65 113.088 2271.5 109.236C2258.34 105.385 2243.58 103.46 2227.21 103.46C2209.56 103.46 2193.43 106.513 2178.84 112.607C2164.23 118.707 2152.68 127.212 2144.18 138.119C2135.67 149.032 2131.42 161.871 2131.42 176.628C2131.42 189.791 2134.71 201.419 2141.29 211.527C2147.86 221.636 2156.45 229.984 2167.04 236.557C2177.63 243.139 2188.86 247.712 2200.74 250.276L2229.62 256.535C2236.36 257.82 2242.93 259.505 2249.35 261.589C2255.77 263.68 2261.15 266.568 2265.48 270.253C2269.81 273.947 2271.98 279 2271.98 285.417C2271.98 294.405 2267.8 300.58 2259.46 303.949C2251.11 307.32 2241.81 309.004 2231.54 309.004C2219.03 309.004 2208.11 306.04 2198.81 300.099C2189.5 294.164 2182.12 285.417 2176.67 273.864L2120.35 298.415C2124.84 310.291 2131.74 321.204 2141.05 331.147C2150.35 341.097 2162.47 349.123 2177.39 355.215C2192.31 361.308 2210.36 364.361 2231.54 364.361C2250.8 364.361 2268.28 361.067 2284.01 354.493C2299.73 347.92 2312.25 338.608 2321.56 326.573C2330.86 314.539 2335.52 300.505 2335.52 284.453C2335.52 266.487 2329.34 251.083 2316.98 238.244C2304.63 225.411 2286.25 216.1 2261.87 210.324Z" fill="#1E1E1E"/>
</g>
<mask id="mask6_13_2" style="mask-type:luminance" maskUnits="userSpaceOnUse" x="0" y="0" width="2533" height="377">
<path d="M0 -1.12165e-05H2532.73V376.363H0V-1.12165e-05Z" fill="white"/>
</mask>
<g mask="url(#mask6_13_2)">
<path d="M2505.39 299.135C2500.89 300.581 2496.08 301.301 2490.95 301.301C2480.04 301.301 2472.17 298.495 2467.36 292.877C2462.55 287.267 2460.14 278.518 2460.14 266.642V165.075H2520.31V111.162H2460.14V41.8461H2397.08V111.162H2354.24V165.075H2397.08V278.195C2397.08 303.874 2404.3 324.009 2418.74 338.607C2433.18 353.214 2453.08 360.509 2478.43 360.509C2486.14 360.509 2493.6 359.787 2500.82 358.343C2508.04 356.898 2515.17 354.899 2522.24 352.327V290.711C2515.5 294.885 2509.88 297.69 2505.39 299.135Z" fill="#1E1E1E"/>
</g>
<mask id="mask7_13_2" style="mask-type:luminance" maskUnits="userSpaceOnUse" x="0" y="0" width="2533" height="377">
<path d="M0 -1.12165e-05H2532.73V376.363H0V-1.12165e-05Z" fill="white"/>
</mask>
<g mask="url(#mask7_13_2)">
<path d="M272.392 43.2924C293.772 73.0404 286.987 114.488 257.239 135.867L115.54 237.702C85.7924 259.082 44.3444 252.296 22.9657 222.548C1.58571 192.799 8.37105 151.352 38.1191 129.972L179.818 28.1391C209.566 6.75911 251.012 13.5444 272.392 43.2924Z" fill="#EA4335" stroke="#1E1E1E" stroke-width="12.7427" stroke-miterlimit="10"/>
</g>
<mask id="mask8_13_2" style="mask-type:luminance" maskUnits="userSpaceOnUse" x="0" y="0" width="2533" height="377">
<path d="M0 -1.12165e-05H2532.73V376.363H0V-1.12165e-05Z" fill="white"/>
</mask>
<g mask="url(#mask8_13_2)">
<path d="M22.9653 145.148C1.58533 174.896 8.37067 216.344 38.1187 237.723L179.817 339.558C209.565 360.938 251.013 354.152 272.392 324.404C293.772 294.655 286.987 253.208 257.239 231.828L115.54 129.995C85.792 108.615 44.3453 115.4 22.9653 145.148Z" fill="#4285F4" stroke="#1E1E1E" stroke-width="12.7427" stroke-miterlimit="10"/>
</g>
<mask id="mask9_13_2" style="mask-type:luminance" maskUnits="userSpaceOnUse" x="0" y="0" width="2533" height="377">
<path d="M0 -1.12165e-05H2532.73V376.363H0V-1.12165e-05Z" fill="white"/>
</mask>
<g mask="url(#mask9_13_2)">
<path d="M614.789 145.148C636.169 174.896 629.384 216.344 599.636 237.723L457.937 339.558C428.189 360.938 386.741 354.152 365.363 324.404C343.983 294.655 350.768 253.208 380.516 231.828L522.215 129.995C551.963 108.615 593.409 115.4 614.789 145.148Z" fill="#F9AB00" stroke="#1E1E1E" stroke-width="12.7427" stroke-miterlimit="10"/>
</g>
<mask id="mask10_13_2" style="mask-type:luminance" maskUnits="userSpaceOnUse" x="0" y="0" width="2533" height="377">
<path d="M0 0H2532.73V376.363H0V0Z" fill="white"/>
</mask>
<g mask="url(#mask10_13_2)">
<path d="M365.362 43.2924C343.982 73.0404 350.768 114.488 380.516 135.867L522.214 237.702C551.962 259.082 593.41 252.296 614.789 222.548C636.169 192.799 629.384 151.352 599.636 129.972L457.937 28.1391C428.189 6.75911 386.741 13.5444 365.362 43.2924Z" fill="#34A853" stroke="#1E1E1E" stroke-width="12.7427" stroke-miterlimit="10"/>
</g>
</g>
<defs>
<clipPath id="clip0_13_2">
<rect width="2532.73" height="376.363" fill="white"/>
</clipPath>
</defs>
</svg>
